# xmcd
#
# Track frame offsets: 
#        150
#        21606
#        39162
#        62177
#        79361
#        96883
#        112996
#        128842
#        147215
#        154836
#
# Disc length: 2717 seconds
#
# Revision: 0
# Processed by: cddbd v1.5.2PL0 Copyright (c) Steve Scherf et al.
# Submitted via: ExactAudioCopy v1.0b1
#
DISCID=850a9b0a
DTITLE=Yuna - Decorate
DYEAR=2010
DGENRE=Alternative
TTITLE0=Gadis Semasa
TTITLE1=These Streets
TTITLE2=Penakut
TTITLE3=Fireworks
TTITLE4=Rocket
TTITLE5=Random Awesome
TTITLE6=Permission
TTITLE7=Cinta Sempurna
TTITLE8=Decorate
TTITLE9=Super Something
EXTD=
EXTT0=
EXTT1=
EXTT2=
EXTT3=
EXTT4=
EXTT5=
EXTT6=
EXTT7=
EXTT8=
EXTT9=
PLAYORDER=
